HIERARCHY
ROOT Hips
{
  OFFSET -69.4423 88.0299 51.6846
  CHANNELS 6 Xposition Yposition Zposition Zrotation Xrotation Yrotation
  JOINT Spine
  {
    OFFSET 12.0259 -0.162853 1.93176e-005
    CHANNELS 3 Zrotation Xrotation Yrotation
    JOINT Spine1
    {
      OFFSET 15.3169 -0.0121909 0
      CHANNELS 3 Zrotation Xrotation Yrotation
      JOINT Spine2
      {
        OFFSET 15.3176 -0.0121922 0
        CHANNELS 3 Zrotation Xrotation Yrotation
        JOINT Neck
        {
          OFFSET 19.9142 1.56236 0
          CHANNELS 3 Zrotation Xrotation Yrotation
          JOINT Head
          {
            OFFSET 6.92646 0 0
            CHANNELS 3 Zrotation Xrotation Yrotation
            End Site
            {
              OFFSET 20.7666 0 0
            }
          }
          JOINT LeftShoulder
          {
            OFFSET -4.94072 -1.14703 8.14416
            CHANNELS 3 Zrotation Xrotation Yrotation
            JOINT LeftArm
            {
              OFFSET 14.108 0 -2.74767e-005
              CHANNELS 3 Zrotation Xrotation Yrotation
              JOINT LeftForeArm
              {
                OFFSET 28.5802 -0.0783412 -0.0284884
                CHANNELS 3 Zrotation Xrotation Yrotation
                JOINT LeftHand
                {
                  OFFSET 27.092 0 0
                  CHANNELS 3 Zrotation Xrotation Yrotation
                  End Site
                  {
                    OFFSET 9.55928 -0.186424 0.145352
                  }
                }
              }
            }
          }
          JOINT RightShoulder
          {
            OFFSET -7.15748 -1.33027 -6.24935
            CHANNELS 3 Zrotation Xrotation Yrotation
            JOINT RightArm
            {
              OFFSET 14.108 0 1.82997e-005
              CHANNELS 3 Zrotation Xrotation Yrotation
              JOINT RightForeArm
              {
                OFFSET 28.5802 -0.0707221 2.30684e-005
                CHANNELS 3 Zrotation Xrotation Yrotation
                JOINT RightHand
                {
                  OFFSET 27.092 0 -1.30073e-005
                  CHANNELS 3 Zrotation Xrotation Yrotation
                  End Site
                  {
                    OFFSET 9.55929 -0.186417 -0.145354
                  }
                }
              }
            }
          }
        }
      }
    }
  }
  JOINT LeftUpLeg
  {
    OFFSET 0.00499725 -0.534999 8.837
    CHANNELS 3 Zrotation Xrotation Yrotation
    JOINT LeftLeg
    {
      OFFSET 39.9035 -0.00124594 0.000252775
      CHANNELS 3 Zrotation Xrotation Yrotation
      JOINT LeftFoot
      {
        OFFSET 39.6689 0 0
        CHANNELS 3 Zrotation Xrotation Yrotation
        JOINT LeftToe
        {
          OFFSET 10.1624 13.6296 0
          CHANNELS 3 Zrotation Xrotation Yrotation
          End Site
          {
            OFFSET 8.38147 0 0
          }
        }
      }
    }
  }
  JOINT RightUpLeg
  {
    OFFSET 0.00499725 -0.535 -8.837
    CHANNELS 3 Zrotation Xrotation Yrotation
    JOINT RightLeg
    {
      OFFSET 39.9036 -0.000268477 0.000106433
      CHANNELS 3 Zrotation Xrotation Yrotation
      JOINT RightFoot
      {
        OFFSET 39.6689 1.17892e-005 0
        CHANNELS 3 Zrotation Xrotation Yrotation
        JOINT RightToe
        {
          OFFSET 10.1624 13.6296 0
          CHANNELS 3 Zrotation Xrotation Yrotation
          End Site
          {
            OFFSET 8.38147 0 0
          }
        }
      }
    }
  }
}
MOTION
Frames:	20
Frame Time:	0.0333333
-56.8166 88.9814 36.6647 -92.809 17.4882 -179.853 1.10637 2.42828 0.798068 2.18136 4.87183 1.55644 2.18134 4.87182 1.55643 -17.9188 6.90627 -6.91743 53.1601 9.50935 -5.5368 -162.463 6.34676 -94.6043 -64.2715 9.37376 85.6532 -63.6204 12.8486 -32.1313 179.477 -71.9642 -178.218 -162.772 3.89389 77.4825 -64.1338 -14.4963 -81.5329 -65.999 -18.9081 32.4063 2.29889 72.6878 -2.1283 -16.6445 0.757616 -168.451 -19.5865 0.52294 -1.78215 1.05891 -24.6921 -2.72295 90 7.95139e-016 -1.59028e-015 -5.59877 -18.617 176.896 -26.1962 -0.505515 0.360765 4.40609 27.2606 1.21744 90 4.77083e-015 3.18055e-015 
-55.4527 88.6953 35.7826 -93.1323 16.1689 -179.936 0.957956 2.86333 0.762706 1.88116 5.73925 1.48026 1.88114 5.73922 1.48025 -17.6231 6.29121 -6.79332 52.1487 8.13583 -5.49457 -162.846 5.86973 -94.3291 -64.0011 9.55493 85.5066 -63.7935 12.8844 -32.1257 179.66 -72.3365 -178.087 -163.163 3.42667 77.7647 -64.3027 -14.4278 -81.5246 -66.1701 -18.9542 32.4381 2.35746 73.3997 -2.19771 -16.756 4.82171 -168.259 -19.1769 0.547765 -1.79595 3.58979 -24.4262 -1.6539 90 1.59028e-015 -0 -4.91034 -17.5345 176.68 -26.16 -0.489966 0.365643 3.51709 29.1809 1.60496 90 -7.15625e-015 -3.18055e-015 
-53.6587 88.6935 34.3058 -93.3797 14.0757 -179.155 0.87709 3.08716 0.548608 1.72828 6.18282 1.05221 1.72828 6.18278 1.05219 -17.6512 5.76355 -7.20924 51.5661 7.42157 -4.62451 -162.862 5.19489 -94.576 -63.2712 9.66478 85.2531 -63.9779 12.9515 -32.1399 179.677 -72.5498 -178.101 -163.182 2.78441 77.5181 -64.1857 -14.0423 -81.2078 -66.1734 -18.9124 32.4072 2.16113 72.2549 -1.97794 -17.3777 9.70299 -169.398 -18.6449 0.45312 -1.64967 -3.21117 -21.305 -4.19014 90 2.38542e-015 -3.18055e-015 -3.85044 -15.8512 175.057 -26.0542 -0.491467 0.385296 4.54485 30.2323 1.11884 90 1.66979e-014 3.18055e-015 
-51.9241 88.7327 32.329 -94.1849 11.539 -178.305 0.704419 3.22279 0.320162 1.39407 6.44975 0.602125 1.39405 6.44972 0.602115 -17.6375 5.37003 -7.82861 50.9742 6.90063 -3.80744 -162.903 4.57852 -95.0305 -62.8297 9.87923 85.0257 -64.243 13.1607 -32.2108 178.947 -73.333 -178.788 -163.222 2.20213 77.0825 -64.4075 -13.4916 -81.1757 -66.1354 -18.9153 32.3934 2.23871 72.5028 -2.0528 -18.1199 11.2502 -171.278 -18.0875 0.419575 -1.60047 -7.31904 -15.4888 -4.43306 90 4.42296e-015 3.18055e-015 -3.83056 -15.0715 172.762 -26.1634 -0.461408 0.345312 2.71495 30.3213 2.20103 90 4.77083e-015 9.54166e-015 
-50.0411 88.8081 30.2197 -94.0566 9.55894 -178.421 0.659687 3.56244 0.276159 1.30592 7.12825 0.512778 1.30592 7.12826 0.51276 -17.1329 4.78637 -8.30293 50.445 5.7813 -3.3922 -163.459 3.93795 -95.2636 -62.8176 9.96533 84.8025 -63.8451 12.8135 -32.064 179.784 -73.138 -178.086 -163.782 1.57617 76.8563 -64.304 -13.655 -81.4535 -66.6293 -19.1661 32.4964 2.32719 73.241 -2.17708 -17.8602 12.1905 -172.645 -18.5571 0.454419 -1.5688 -8.02429 -12.1884 -3.75077 90 -9.93923e-016 3.18055e-015 -3.91603 -16.2962 170.671 -27.3443 -0.392639 0.213112 -1.0931 29.4785 4.20564 90 -2.38542e-015 3.18055e-015 
-48.0487 88.8944 27.9296 -93.493 7.47188 -177.961 0.70426 3.8272 0.237855 1.39726 7.65752 0.430018 1.39724 7.65748 0.430004 -16.5813 4.37906 -9.60492 50.9113 5.18317 -2.79024 -164.012 3.27261 -96.3309 -63.2368 9.23701 85.1585 -63.3172 12.6447 -32.0008 179.535 -72.8997 -178.28 -164.361 0.912688 75.7515 -63.3538 -13.2995 -81.827 -66.3529 -19.0597 32.4489 2.32199 73.0435 -2.15879 -15.9633 13.3156 -175.064 -17.7783 0.520258 -1.54204 -8.6983 -10.0202 -3.24601 90 7.15625e-015 6.36111e-015 -5.33733 -17.3584 167.63 -30.8332 -0.244014 0.062715 -5.38971 29.4076 6.44533 90 -7.95139e-015 1.59028e-014 
-46.1538 89.0575 25.7331 -93.0498 5.54158 -177.267 0.742264 4.07577 0.101477 1.48291 8.15299 0.150591 1.48289 8.15296 0.150581 -16.5462 3.9665 -10.5368 52.2793 4.84605 -1.94803 -164.067 2.64677 -97.0816 -63.2444 9.26348 85.0102 -63.2393 12.6507 -31.9968 179.451 -73.2938 -178.349 -164.462 0.288355 74.9719 -62.9712 -12.6062 -81.9411 -65.5777 -18.6688 32.2845 2.37093 73.6208 -2.20607 -13.2384 14.964 -177.715 -16.0068 0.635523 -1.504 -8.23408 -7.7201 -2.47669 90 2.38542e-015 -0 -7.54113 -16.3406 164.834 -35.5274 0.00913686 -0.0325671 -11.5562 30.4862 9.80121 90 -2.38542e-015 -1.27222e-014 
-44.2235 89.2777 23.7165 -92.3663 3.21075 -177.104 0.75029 3.98601 0.066666 1.50138 7.973 0.0812748 1.50138 7.97298 0.0812699 -16.4069 4.02192 -9.94915 53.3406 4.89767 -2.65746 -164.217 2.95537 -96.5482 -62.2597 9.49421 85.841 -63.5439 12.8232 -32.0697 179.359 -74.962 -178.419 -164.59 0.620492 75.5144 -63.7296 -12.8782 -82.2986 -65.6661 -18.6792 32.304 2.43593 74.2386 -2.26833 -10.2222 15.2661 -179.883 -14.3075 0.768307 -1.45556 -7.27065 -5.2647 -1.66207 90 3.97569e-015 -6.36111e-015 -9.22812 -15.1839 163.003 -39.8437 0.193846 -0.0185214 -13.824 29.7352 10.7121 90 -4.77083e-015 -1.27222e-014 
-42.2881 89.2915 22.001 -91.6866 0.960057 -177.547 0.796137 3.86813 0.124589 1.58926 7.73811 0.195974 1.58926 7.73807 0.195963 -16.2634 3.83805 -9.94763 53.6188 4.83515 -2.37959 -164.386 2.76635 -96.5119 -61.3047 10.1617 86.0876 -64.2223 13.0809 -32.1613 179.436 -74.5222 -178.361 -164.757 0.469379 75.5586 -64.0545 -12.1959 -82.3484 -65.4745 -18.5677 32.2693 2.33995 73.5754 -2.17707 -8.40359 16.026 179.354 -14.6071 0.869138 -1.3665 -5.21891 -1.98284 -0.653864 90 -2.38542e-015 9.54166e-015 -10.6467 -14.0574 162.504 -43.7863 0.182365 -0.0097078 -11.9149 19.6349 7.08557 90 -2.38542e-014 -0 
-40.4281 89.178 20.3981 -91.2624 -1.01765 -177.58 0.854417 3.80103 0.0721594 1.70969 7.60321 0.0878038 1.70966 7.60316 0.0877929 -16.1795 3.57936 -10.0124 53.6205 4.62372 -1.92604 -164.521 2.40243 -96.508 -61.2326 10.6781 85.782 -64.3485 13.1721 -32.1777 179.395 -73.1449 -178.392 -164.883 0.117275 75.5598 -63.5363 -11.4314 -82.6247 -65.65 -18.6303 32.2985 2.34633 73.8183 -2.18184 -6.77354 16.2357 178.279 -15.0553 0.84156 -1.35988 -2.97076 -0.833307 -0.224603 90 2.38542e-015 -3.18055e-015 -12.7013 -11.738 162.706 -47.5903 -0.0332633 -0.0918782 -8.30337 9.8944 3.12866 90 -9.93923e-015 -3.18055e-015 
-38.5391 89.0303 19.0991 -90.7715 -3.05182 -177.515 0.931962 3.6776 0.0189453 1.86851 7.35551 -0.0221156 1.8685 7.35552 -0.0221281 -15.9858 3.37512 -10.2469 53.3255 4.7457 -1.18209 -164.72 2.1166 -96.6972 -61.3523 11.4471 85.4351 -64.6616 13.2658 -32.1912 179.256 -69.8559 -178.563 -165.116 -0.153579 75.3742 -62.7736 -10.7376 -83.1433 -65.8347 -18.6594 32.32 2.18555 73.5955 -2.01628 -5.10156 17.4737 177.572 -15.5592 0.842326 -1.25847 -1.00176 2.00705 0.335777 90 -1.59028e-015 3.18055e-015 -14.4065 -8.8714 163.943 -50.426 -0.204956 -0.145381 -6.13098 2.7414 0.73606 90 -8.74653e-015 6.36111e-015 
-36.7918 88.7966 17.6525 -90.6071 -5.8981 -177.165 0.969884 3.41997 -0.0653008 1.94889 6.83851 -0.189039 1.94889 6.8385 -0.189051 -16.0389 3.15618 -10.6782 53.6067 4.64422 -0.603868 -164.673 1.77885 -97.0588 -61.6284 11.8068 85.0323 -64.9135 13.4205 -32.2359 179.444 -70.2453 -178.35 -165.118 -0.486048 75.0144 -61.9254 -10.2211 -83.849 -66.0626 -18.7374 32.3664 2.14536 73.5394 -1.97185 -3.81108 17.1395 176.395 -15.9864 0.879088 -1.17507 0.378867 3.90477 0.573903 90 7.15625e-015 3.18055e-015 -16.9784 -7.24141 164.811 -52.5519 -0.271581 -0.130527 -4.51952 -1.71415 -0.553446 90 2.38542e-015 -3.18055e-015 
-35.1381 88.5379 16.2257 -90.5259 -8.40995 -176.687 1.06501 3.31155 -0.286366 2.152 6.61767 -0.635906 2.152 6.61767 -0.635918 -16.0915 2.69085 -10.9167 53.6461 4.35109 0.497929 -164.662 1.23892 -97.1387 -62.6291 12.3595 83.9894 -64.9129 13.4807 -32.2434 179.277 -70.3232 -178.498 -165.158 -1.04223 74.918 -60.843 -8.90155 -84.3279 -65.7998 -18.6011 32.3076 2.06737 73.18 -1.89241 -2.43257 16.7057 175.134 -16.1207 0.917923 -1.0957 1.38283 5.50328 0.673484 90 1.59028e-015 3.18055e-015 -19.8535 -5.69573 165.902 -53.8578 -0.259907 -0.0899677 -2.43747 -1.17789 -0.519147 90 -3.18055e-015 -2.38542e-015 
-33.4445 88.3343 14.9036 -90.061 -10.4177 -176.174 1.17611 3.20961 -0.432188 2.3821 6.41002 -0.932421 2.38209 6.41004 -0.932433 -15.8144 2.36778 -10.8924 53.5283 3.94948 0.803515 -164.97 1.02919 -97.013 -62.6941 12.5114 83.3627 -64.5421 13.343 -32.1871 179.377 -70.6571 -178.428 -165.501 -1.30821 75.0043 -60.367 -7.86844 -84.849 -65.0028 -18.217 32.1526 2.00367 72.8356 -1.83543 -0.523352 16.4138 174.024 -16.0713 0.960853 -0.997783 1.96471 6.90501 0.694982 90 3.18055e-015 -0 -22.1707 -3.92623 167.44 -54.0631 -0.242876 -0.0347609 -0.100678 1.242 -0.210566 90 -7.95139e-016 -1.19271e-015 
-31.7629 88.0306 13.4326 -89.7821 -12.5012 -175.715 1.28468 3.00553 -0.568597 2.60456 5.99791 -1.20697 2.60456 5.9979 -1.20698 -15.7651 2.22717 -11.0858 53.5988 4.06162 1.35084 -165.033 0.844434 -97.1222 -62.647 12.5549 82.9309 -64.1064 13.1722 -32.1091 179.223 -71.6843 -178.617 -165.57 -1.50436 74.8549 -60.6288 -7.26288 -84.9933 -64.3323 -17.8685 31.9976 1.87768 72.3288 -1.75385 1.41848 15.0738 172.716 -15.5716 0.99028 -0.953713 3.57252 7.1578 0.564242 90 -1.59028e-015 -0 -24.6035 -2.99399 168.712 -52.4936 -0.240465 0.0428103 1.2399 3.95594 0.0782241 90 2.38542e-015 2.18663e-015 
-30.0795 88.0175 12.114 -89.6737 -14.2243 -175.495 1.34639 2.87974 -0.645626 2.73037 5.74378 -1.36134 2.73036 5.74379 -1.36135 -15.803 2.23877 -11.4396 53.9693 4.34944 1.64806 -165.002 0.757368 -97.4342 -62.512 12.2633 83.1851 -63.7316 13.0499 -32.0586 179.092 -73.5265 -178.75 -165.538 -1.59125 74.5142 -60.5072 -7.03133 -85.1365 -64.1203 -17.7351 31.9421 1.7495 71.8053 -1.63534 3.88348 13.6712 171.76 -13.6615 1.02531 -0.94519 3.24965 7.54069 0.538932 90 -9.54166e-015 -3.18055e-015 -26.5385 -1.82924 170.53 -49.1989 -0.243373 0.144112 1.66916 6.59396 0.396918 90 7.95139e-016 2.98177e-016 
-28.3229 87.9469 10.7295 -89.5491 -15.9516 -174.987 1.40939 2.7095 -0.783289 2.86058 5.39911 -1.6357 2.86058 5.39911 -1.63571 -15.7223 2.06934 -11.3928 53.9734 4.22096 1.8954 -165.123 0.624488 -97.3263 -61.9631 12.0529 83.4897 -63.63 12.9949 -32.0337 179.173 -73.2543 -178.673 -165.64 -1.71254 74.6172 -60.424 -7.52224 -85.4986 -64.4687 -17.8803 32.0208 1.70731 71.7475 -1.59475 7.9712 12.1948 170.314 -8.50603 1.04959 -0.987437 2.30876 8.17963 0.493947 90 4.77083e-015 -0 -28.3695 -0.964968 171.442 -45.1258 -0.24586 0.258338 1.61368 6.68007 0.431576 90 7.95139e-016 2.38542e-015 
-26.4715 87.7959 9.15609 -89.3896 -17.2076 -173.74 1.46674 2.58745 -1.03936 2.98481 5.14744 -2.14786 2.98481 5.14744 -2.14788 -15.6651 1.95836 -11.4843 54.1251 4.17097 2.08057 -165.214 0.491834 -97.3661 -61.5402 11.9718 84.2825 -63.8869 13.069 -32.0712 179.245 -72.7934 -178.597 -165.711 -1.81004 74.5695 -60.5008 -7.67254 -85.4943 -64.3962 -17.8185 32.0109 1.83403 73.4403 -1.71065 11.3224 12.1419 168.442 -6.1978 1.1216 -0.993876 2.17966 10.1128 0.58666 90 4.77083e-015 3.18055e-015 -29.8541 -0.272736 171.448 -40.2491 -0.248083 0.373244 0.145922 5.71294 0.553708 90 3.97569e-016 2.38542e-015 
-24.6497 87.6707 7.75947 -89.6385 -19.1284 -173.415 1.40858 2.34561 -1.10894 2.86598 4.66347 -2.27799 2.86596 4.6635 -2.27802 -15.5524 1.92677 -11.4428 53.7461 3.89353 1.82148 -165.342 0.523128 -97.3108 -61.4645 11.7568 85.0326 -63.8506 13.0368 -32.0652 179.232 -71.4056 -178.596 -165.83 -1.74929 74.6253 -59.9463 -8.05422 -85.6949 -64.4878 -17.8474 32.0174 2.068 75.8226 -1.92085 14.4423 10.1923 167.658 -2.02872 1.16133 -1.14433 1.35535 10.7653 0.775024 90 3.18055e-015 3.18055e-015 -31.4777 -1.85271 171.646 -34.5281 -0.24192 0.518776 -1.74639 3.68222 0.436856 90 1.01877e-015 -3.18055e-015 
-22.6653 87.4571 6.67797 -90.4977 -20.6007 -174.041 1.20913 2.24116 -1.05199 2.4621 4.45971 -2.15341 2.46208 4.4597 -2.15342 -15.3444 1.72969 -11.4297 53.5428 3.55393 1.88283 -165.605 0.379193 -97.2702 -61.5015 11.7422 85.9764 -63.9546 13.0812 -32.0822 179.139 -70.0036 -178.659 -166.08 -1.84106 74.6835 -59.206 -8.65965 -85.8221 -64.5641 -17.8827 32.029 2.55633 78.695 -2.38076 14.7887 9.26597 168.083 -2.03509 1.17567 -1.14479 2.23465 11.0411 0.694403 90 9.54166e-015 -0 -33.0827 -3.40375 172.758 -29.1759 -0.237023 0.635833 -2.28222 1.32537 -0.0623032 90 1.19271e-015 3.18055e-015 
